<svg class="wave wave2" xmlns="http://www.w3.org/2000/svg" viewBox="0 0 1440 320">
            <path fill="#7a0000" fill-opacity="1" d="M0,256L40,245.3C80,235,160,213,240,192C320,171,400,149,480,154.7C560,160,640,192,720,213.3C800,235,880,245,960,213.3C1040,181,1120,107,1200,90.7C1280,75,1360,85,1400,90.7L1440,96L1440,320L1400,320C1360,320,1280,320,1200,320C1120,320,1040,320,960,320C880,320,800,320,720,320C640,320,560,320,480,320C400,320,320,320,240,320C160,320,80,320,40,320L0,320Z"></path>
        </svg>